<svg width="122" height="17" viewBox="0 0 122 17" fill="none" xmlns="http://www.w3.org/2000/svg">
<path d="M3.23295 9.69318V16H0.207386V5.09091H3.09091V7.01562H3.21875C3.46023 6.38116 3.86506 5.87926 4.43324 5.50994C5.00142 5.13589 5.69034 4.94886 6.5 4.94886C7.25758 4.94886 7.91809 5.11458 8.48153 5.44602C9.04498 5.77746 9.48295 6.25095 9.79545 6.86648C10.108 7.47727 10.2642 8.20644 10.2642 9.05398V16H7.23864V9.59375C7.24337 8.92614 7.07292 8.4053 6.72727 8.03125C6.38163 7.65246 5.90578 7.46307 5.29972 7.46307C4.89252 7.46307 4.53267 7.55066 4.22017 7.72585C3.91241 7.90104 3.67093 8.15672 3.49574 8.4929C3.32528 8.82434 3.23769 9.22443 3.23295 9.69318ZM17.6204 16.2131C16.4982 16.2131 15.5323 15.9858 14.7227 15.5312C13.9177 15.072 13.2975 14.4233 12.8619 13.5852C12.4263 12.7424 12.2085 11.7457 12.2085 10.5952C12.2085 9.47301 12.4263 8.48816 12.8619 7.64062C13.2975 6.79309 13.9106 6.13258 14.7013 5.65909C15.4968 5.18561 16.4296 4.94886 17.4996 4.94886C18.2193 4.94886 18.8893 5.06487 19.5096 5.29688C20.1346 5.52415 20.6791 5.86742 21.1431 6.3267C21.6119 6.78598 21.9764 7.36364 22.2369 8.05966C22.4973 8.75095 22.6275 9.56061 22.6275 10.4886V11.3196H13.4158V9.4446H19.7795C19.7795 9.009 19.6848 8.62311 19.4954 8.28693C19.306 7.95076 19.0432 7.68797 18.707 7.49858C18.3756 7.30445 17.9897 7.20739 17.5494 7.20739C17.0901 7.20739 16.6829 7.31392 16.3278 7.52699C15.9774 7.73532 15.7028 8.01705 15.5039 8.37216C15.305 8.72254 15.2032 9.11316 15.1985 9.54403V11.3267C15.1985 11.8665 15.2979 12.3329 15.4968 12.7259C15.7004 13.1188 15.9869 13.4219 16.3562 13.6349C16.7255 13.848 17.1635 13.9545 17.6701 13.9545C18.0063 13.9545 18.314 13.9072 18.5934 13.8125C18.8728 13.7178 19.1119 13.5758 19.3107 13.3864C19.5096 13.197 19.6611 12.965 19.7653 12.6903L22.5636 12.875C22.4215 13.5473 22.1303 14.1345 21.69 14.6364C21.2544 15.1335 20.6909 15.5218 19.9996 15.8011C19.3131 16.0758 18.52 16.2131 17.6204 16.2131ZM26.6758 16L23.707 5.09091H26.7681L28.4585 12.4205H28.5579L30.3192 5.09091H33.3235L35.1133 12.3778H35.2056L36.8675 5.09091H39.9215L36.9599 16H33.7567L31.8817 9.1392H31.7468L29.8718 16H26.6758ZM41.8196 16.1847C41.3509 16.1847 40.9484 16.0189 40.6122 15.6875C40.2808 15.3513 40.1151 14.9489 40.1151 14.4801C40.1151 14.0161 40.2808 13.6184 40.6122 13.2869C40.9484 12.9555 41.3509 12.7898 41.8196 12.7898C42.2741 12.7898 42.6719 12.9555 43.0128 13.2869C43.3537 13.6184 43.5241 14.0161 43.5241 14.4801C43.5241 14.7926 43.4437 15.0791 43.2827 15.3395C43.1264 15.5952 42.9205 15.8011 42.6648 15.9574C42.4091 16.1089 42.1274 16.1847 41.8196 16.1847ZM48.1602 16L45.1914 5.09091H48.2525L49.9428 12.4205H50.0423L51.8036 5.09091H54.8079L56.5977 12.3778H56.69L58.3519 5.09091H61.4059L58.4442 16H55.2411L53.3661 9.1392H53.2312L51.3562 16H48.1602ZM67.718 16.2131C66.5959 16.2131 65.63 15.9858 64.8203 15.5312C64.0154 15.072 63.3951 14.4233 62.9595 13.5852C62.5239 12.7424 62.3061 11.7457 62.3061 10.5952C62.3061 9.47301 62.5239 8.48816 62.9595 7.64062C63.3951 6.79309 64.0083 6.13258 64.799 5.65909C65.5945 5.18561 66.5272 4.94886 67.5973 4.94886C68.317 4.94886 68.987 5.06487 69.6072 5.29688C70.2322 5.52415 70.7768 5.86742 71.2408 6.3267C71.7095 6.78598 72.0741 7.36364 72.3345 8.05966C72.5949 8.75095 72.7251 9.56061 72.7251 10.4886V11.3196H63.5135V9.4446H69.8771C69.8771 9.009 69.7824 8.62311 69.593 8.28693C69.4036 7.95076 69.1409 7.68797 68.8047 7.49858C68.4732 7.30445 68.0874 7.20739 67.647 7.20739C67.1877 7.20739 66.7805 7.31392 66.4254 7.52699C66.075 7.73532 65.8004 8.01705 65.6016 8.37216C65.4027 8.72254 65.3009 9.11316 65.2962 9.54403V11.3267C65.2962 11.8665 65.3956 12.3329 65.5945 12.7259C65.7981 13.1188 66.0845 13.4219 66.4538 13.6349C66.8232 13.848 67.2611 13.9545 67.7678 13.9545C68.1039 13.9545 68.4117 13.9072 68.6911 13.8125C68.9704 13.7178 69.2095 13.5758 69.4084 13.3864C69.6072 13.197 69.7588 12.965 69.8629 12.6903L72.6612 12.875C72.5192 13.5473 72.228 14.1345 71.7876 14.6364C71.352 15.1335 70.7886 15.5218 70.0973 15.8011C69.4107 16.0758 68.6177 16.2131 67.718 16.2131ZM74.7564 16V1.45455H77.782V6.9233H77.8743C78.0069 6.62973 78.1986 6.33144 78.4496 6.02841C78.7053 5.72064 79.0367 5.46496 79.4439 5.26136C79.8558 5.05303 80.3672 4.94886 80.978 4.94886C81.7734 4.94886 82.5073 5.1572 83.1797 5.57386C83.852 5.9858 84.3894 6.60843 84.7919 7.44176C85.1944 8.27036 85.3956 9.30966 85.3956 10.5597C85.3956 11.7765 85.1991 12.804 84.8061 13.642C84.4179 14.4754 83.8875 15.1075 83.2152 15.5384C82.5476 15.9645 81.7995 16.1776 80.9709 16.1776C80.3838 16.1776 79.8842 16.0805 79.4723 15.8864C79.0651 15.6922 78.7313 15.4484 78.4709 15.1548C78.2105 14.8565 78.0116 14.5559 77.8743 14.2528H77.7393V16H74.7564ZM77.718 10.5455C77.718 11.1941 77.808 11.7599 77.9879 12.2429C78.1679 12.7259 78.4283 13.1023 78.7692 13.3722C79.1101 13.6373 79.5244 13.7699 80.0121 13.7699C80.5045 13.7699 80.9212 13.6349 81.2621 13.3651C81.603 13.0904 81.861 12.7116 82.0362 12.2287C82.2161 11.741 82.3061 11.1799 82.3061 10.5455C82.3061 9.91572 82.2185 9.36174 82.0433 8.88352C81.8681 8.4053 81.6101 8.03125 81.2692 7.76136C80.9283 7.49148 80.5092 7.35653 80.0121 7.35653C79.5196 7.35653 79.103 7.48674 78.7621 7.74716C78.4259 8.00758 78.1679 8.37689 77.9879 8.85511C77.808 9.33333 77.718 9.89678 77.718 10.5455ZM96.4911 8.2017L93.7212 8.37216C93.6739 8.13542 93.5721 7.92235 93.4158 7.73295C93.2596 7.53883 93.0536 7.38494 92.7979 7.27131C92.547 7.15294 92.2463 7.09375 91.896 7.09375C91.4272 7.09375 91.0318 7.19318 90.7099 7.39205C90.3879 7.58617 90.2269 7.84659 90.2269 8.1733C90.2269 8.43371 90.3311 8.65388 90.5394 8.83381C90.7478 9.01373 91.1052 9.15814 91.6119 9.26705L93.5863 9.66477C94.6469 9.88258 95.4376 10.233 95.9585 10.7159C96.4793 11.1989 96.7397 11.8333 96.7397 12.6193C96.7397 13.3343 96.529 13.9616 96.1076 14.5014C95.6909 15.0412 95.118 15.4626 94.3888 15.7656C93.6644 16.0639 92.8287 16.2131 91.8817 16.2131C90.4376 16.2131 89.2871 15.9124 88.43 15.3111C87.5778 14.705 87.0782 13.8812 86.9315 12.8395L89.9073 12.6832C89.9973 13.1236 90.2151 13.4598 90.5607 13.6918C90.9064 13.919 91.3491 14.0327 91.8888 14.0327C92.4192 14.0327 92.8453 13.9309 93.1673 13.7273C93.494 13.5189 93.6597 13.2514 93.6644 12.9247C93.6597 12.6501 93.5437 12.4252 93.3164 12.25C93.0891 12.0701 92.7388 11.9328 92.2653 11.8381L90.3761 11.4616C89.3107 11.2486 88.5176 10.8793 87.9968 10.3537C87.4807 9.82812 87.2227 9.15814 87.2227 8.34375C87.2227 7.64299 87.4121 7.0393 87.7908 6.53267C88.1744 6.02604 88.7118 5.63542 89.4031 5.3608C90.0991 5.08617 90.9135 4.94886 91.8462 4.94886C93.2241 4.94886 94.3084 5.24006 95.0991 5.82244C95.8945 6.40483 96.3585 7.19792 96.4911 8.2017ZM98.6449 16V5.09091H101.67V16H98.6449ZM100.165 3.68466C99.715 3.68466 99.3291 3.53551 99.0071 3.23722C98.6899 2.93419 98.5312 2.57197 98.5312 2.15057C98.5312 1.7339 98.6899 1.37642 99.0071 1.07812C99.3291 0.775094 99.715 0.623579 100.165 0.623579C100.615 0.623579 100.998 0.775094 101.315 1.07812C101.637 1.37642 101.798 1.7339 101.798 2.15057C101.798 2.57197 101.637 2.93419 101.315 3.23722C100.998 3.53551 100.615 3.68466 100.165 3.68466ZM109.897 5.09091V7.36364H103.327V5.09091H109.897ZM104.819 2.47727H107.844V12.6477C107.844 12.9271 107.887 13.1449 107.972 13.3011C108.057 13.4527 108.176 13.5592 108.327 13.6207C108.483 13.6823 108.663 13.7131 108.867 13.7131C109.009 13.7131 109.151 13.7012 109.293 13.6776C109.435 13.6491 109.544 13.6278 109.62 13.6136L110.096 15.8651C109.944 15.9124 109.731 15.9669 109.456 16.0284C109.182 16.0947 108.848 16.1349 108.455 16.1491C107.726 16.1776 107.087 16.0805 106.537 15.858C105.993 15.6354 105.569 15.2898 105.266 14.821C104.963 14.3523 104.814 13.7604 104.819 13.0455V2.47727ZM116.722 16.2131C115.6 16.2131 114.634 15.9858 113.824 15.5312C113.019 15.072 112.399 14.4233 111.963 13.5852C111.528 12.7424 111.31 11.7457 111.31 10.5952C111.31 9.47301 111.528 8.48816 111.963 7.64062C112.399 6.79309 113.012 6.13258 113.803 5.65909C114.598 5.18561 115.531 4.94886 116.601 4.94886C117.321 4.94886 117.991 5.06487 118.611 5.29688C119.236 5.52415 119.781 5.86742 120.245 6.3267C120.713 6.78598 121.078 7.36364 121.338 8.05966C121.599 8.75095 121.729 9.56061 121.729 10.4886V11.3196H112.517V9.4446H118.881C118.881 9.009 118.786 8.62311 118.597 8.28693C118.408 7.95076 118.145 7.68797 117.809 7.49858C117.477 7.30445 117.091 7.20739 116.651 7.20739C116.192 7.20739 115.784 7.31392 115.429 7.52699C115.079 7.73532 114.804 8.01705 114.605 8.37216C114.407 8.72254 114.305 9.11316 114.3 9.54403V11.3267C114.3 11.8665 114.4 12.3329 114.598 12.7259C114.802 13.1188 115.088 13.4219 115.458 13.6349C115.827 13.848 116.265 13.9545 116.772 13.9545C117.108 13.9545 117.416 13.9072 117.695 13.8125C117.974 13.7178 118.213 13.5758 118.412 13.3864C118.611 13.197 118.763 12.965 118.867 12.6903L121.665 12.875C121.523 13.5473 121.232 14.1345 120.792 14.6364C120.356 15.1335 119.792 15.5218 119.101 15.8011C118.415 16.0758 117.622 16.2131 116.722 16.2131Z" fill="black"/>
</svg>
